<svg width="30" height="31" viewBox="0 0 30 31" fill="none" xmlns="http://www.w3.org/2000/svg">
<path d="M8.51976 8.34108C8.51912 10.1024 8.86702 11.7138 9.58089 13.4069C9.61535 13.4887 9.65071 13.5707 9.68698 13.6531C9.91403 12.204 10.3733 10.8427 11.0584 9.52226L8.51976 8.34108Z" stroke="#FF9500" strokeWidth="6"/>
<mask id="path-2-inside-1_65020_1056" fill="white">
<path d="M25.1824 16.1133C20.9081 19.2458 20.4842 22.6811 21.402 30.2362C16.7495 20.9543 15.8924 16.5748 18.828 10.8571L25.1824 16.1133Z"/>
</mask>
<path d="M21.402 30.2362L36.2925 28.4273L7.99226 36.9578L21.402 30.2362ZM25.1824 16.1133L34.7431 4.55505L49.5817 16.8291L34.0491 28.2122L25.1824 16.1133ZM18.828 10.8571L5.48399 4.00601L14.008 -12.5963L28.3886 -0.701151L18.828 10.8571ZM6.51142 32.045C6.05168 28.2603 5.54202 23.0994 6.75755 18.0232C8.2608 11.7454 11.8797 7.26541 16.3158 4.01446L34.0491 28.2122C33.9341 28.2964 34.3628 28.0043 34.882 27.2744C35.14 26.9117 35.3725 26.5079 35.5632 26.0807C35.752 25.6578 35.8662 25.2874 35.9328 25.0093C36.0553 24.4977 35.9923 24.3946 36.0026 25.0469C36.013 25.7115 36.0882 26.7454 36.2925 28.4273L6.51142 32.045ZM15.6218 27.6716L9.26733 22.4154L28.3886 -0.701151L34.7431 4.55505L15.6218 27.6716ZM32.172 17.7083C31.9322 18.1753 32.004 18.1574 32.071 17.8069C32.103 17.6392 32.121 17.4621 32.1237 17.2974C32.1263 17.1368 32.1133 17.0513 32.1154 17.0661C32.1247 17.13 32.2066 17.6167 32.6388 18.7494C33.0747 19.8918 33.7547 21.4058 34.8117 23.5146L7.99226 36.9578C5.59564 32.1765 3.22469 26.9023 2.42345 21.354C1.48212 14.8357 2.82595 9.18309 5.48399 4.00601L32.172 17.7083Z" fill="#FF9500" mask="url(#path-2-inside-1_65020_1056)"/>
</svg>
